# xmcd
#
# Track frame offsets: 
#        150
#        12996
#        29768
#        55008
#        82534
#        110275
#        135793
#        155070
#        169157
#        182860
#        195115
#        208790
#        237546
#
# Disc length: 3698 seconds
#
# Revision: 1
# Processed by: cddbd v1.5.2PL0 Copyright (c) Steve Scherf et al.
# Submitted via: ExactAudioCopy v1.0b3
#
DISCID=a00e700d
DTITLE=Reverend Gary Davis - Live at Gerde's Folk City February, 1962 
DTITLE=CD 3
DYEAR=2009
DGENRE=Blues
TTITLE0=God's Gonna Separate
TTITLE1=Lord Search My Heart
TTITLE2=Jesus Met The Woman At The Well
TTITLE3=Say No To The Devil
TTITLE4=I Am A Pilgrim
TTITLE5=All Night Long
TTITLE6=Trying To Get To Heaven
TTITLE7=Thank You Jesus
TTITLE8=Twelve Sticks
TTITLE9=Intro To Tesse
TTITLE10=Tesse
TTITLE11=Lord They Tell Me
TTITLE12=Right Or Wrong
EXTD=
EXTT0=
EXTT1=
EXTT2=
EXTT3=
EXTT4=
EXTT5=
EXTT6=
EXTT7=
EXTT8=
EXTT9=
EXTT10=
EXTT11=
EXTT12=
PLAYORDER=
